<?xml version="1.0" encoding="UTF-8" standalone="no"?>
<svg
   version="1.1"
   id="Ebene_1"
   x="0px"
   y="0px"
   width="432.80435"
   height="109.10606"
   viewBox="0 0 432.80436 109.10605"
   enable-background="new 0 0 891.381 302.875"
   xml:space="preserve"
   sodipodi:docname="helmholtz_id_logo_blue.svg"
   inkscape:version="1.2.2 (b0a8486541, 2022-12-01)"
   xmlns:inkscape="http://www.inkscape.org/namespaces/inkscape"
   xmlns:sodipodi="http://sodipodi.sourceforge.net/DTD/sodipodi-0.dtd"
   xmlns="http://www.w3.org/2000/svg"
   xmlns:svg="http://www.w3.org/2000/svg"
   xmlns:rdf="http://www.w3.org/1999/02/22-rdf-syntax-ns#"
   xmlns:cc="http://creativecommons.org/ns#"
   xmlns:dc="http://purl.org/dc/elements/1.1/">
   <metadata
   id="metadata4157">
      <rdf:RDF>
         <cc:Work
   rdf:about="">
            <dc:format>image/svg+xml</dc:format>
            <dc:type
   rdf:resource="http://purl.org/dc/dcmitype/StillImage" />
         </cc:Work>
      </rdf:RDF>
   </metadata>
   <metadata
   id="metadata625503">
      <rdf:RDF>
         <cc:Work
   rdf:about="">
            <cc:license
   rdf:resource="http://creativecommons.org/licenses/by/4.0/" />
         </cc:Work>
      </rdf:RDF>
   </metadata>
   <defs
   id="defs4155">
	
</defs><sodipodi:namedview
   pagecolor="#ffffff"
   bordercolor="#666666"
   borderopacity="1"
   objecttolerance="10"
   gridtolerance="10"
   guidetolerance="10"
   inkscape:pageopacity="0"
   inkscape:pageshadow="2"
   inkscape:window-width="3072"
   inkscape:window-height="1659"
   id="namedview4153"
   showgrid="false"
   inkscape:zoom="2.8284271"
   inkscape:cx="240.41631"
   inkscape:cy="65.2306"
   inkscape:window-x="0"
   inkscape:window-y="0"
   inkscape:window-maximized="1"
   inkscape:current-layer="Ebene_1"
   inkscape:pagecheckerboard="true"
   inkscape:document-rotation="0"
   inkscape:snap-bbox="true"
   inkscape:object-paths="true"
   inkscape:snap-center="false"
   showguides="false"
   inkscape:showpageshadow="2"
   inkscape:deskcolor="#d1d1d1"><inkscape:grid
     type="xygrid"
     id="grid843"
     originx="-16.079123"
     originy="2.8547767" /></sodipodi:namedview>

























<rect
   style="fill:#ffffff;fill-opacity:1;stroke:#002864;stroke-width:2;stroke-dasharray:none;stroke-opacity:1"
   id="rect309"
   width="430.80435"
   height="107.10606"
   x="1"
   y="1"
   rx="10.000001"
   ry="10.000001" /><g
   id="g1008"
   transform="matrix(0.88023155,0,0,0.88023155,12.703088,10.19717)"
   style="stroke-width:1.13606"><path
     id="line4042"
     style="fill:#002864;stroke:#002864;stroke-width:2.72849;stroke-miterlimit:10"
     d="M 35.043991,60.326995 67.449997,75.341998" /><path
     id="line4044"
     style="fill:#002864;stroke:#002864;stroke-width:2.72849;stroke-miterlimit:10"
     d="M 7.7839985,70.627002 67.449997,75.341998" /><path
     id="line4046"
     style="fill:#002864;stroke:#002864;stroke-width:2.72849;stroke-miterlimit:10"
     d="m 58.434006,29.852004 13.182998,66.465" /><path
     id="line4048"
     style="fill:#002864;stroke:#002864;stroke-width:2.77144;stroke-miterlimit:10"
     d="M 58.416958,29.860173 27.792295,93.772762" /><path
     id="line4050"
     style="fill:#002864;stroke:#002864;stroke-width:2.72849;stroke-miterlimit:10"
     d="m 28.283998,92.774005 98.953992,-43.952" /><path
     id="line4052"
     style="fill:#002864;stroke:#002864;stroke-width:2.72849;stroke-miterlimit:10"
     d="M 58.434006,29.852004 127.23799,48.822005" /><path
     id="line4060"
     style="fill:#002864;stroke:#002864;stroke-width:2.95732;stroke-miterlimit:10"
     d="M 110.95447,3.5241096 126.7934,48.769145" /><path
     id="line4062"
     style="fill:#002864;stroke:#002864;stroke-width:2.6886;stroke-miterlimit:10"
     d="M 112.52834,3.7548396 67.432922,75.353404" /><path
     id="line4066"
     style="fill:#002864;stroke:#002864;stroke-width:2.72849;stroke-miterlimit:10"
     d="m 58.434006,29.852004 54.181994,66.465" /><path
     id="line4068"
     style="fill:#002864;stroke:#002864;stroke-width:2.64693;stroke-miterlimit:10"
     d="M 127.05548,48.820312 112.39791,93.409808" /><path
     id="line4074"
     style="fill:#002864;stroke:#002864;stroke-width:2.72849;stroke-miterlimit:10"
     d="M 67.449997,75.341998 112.616,96.317004" /><path
     style="fill:#002864;fill-opacity:1;stroke:none;stroke-width:1.13606;stroke-opacity:1"
     inkscape:connector-curvature="0"
     id="path4054"
     d="M 113.661,100.777 H 24.892 C 11.167,100.777 0,89.611 0,75.886 0,62.16 11.167,50.994 24.892,50.994 c 1.977,0 3.922,0.233 5.821,0.695 3.414,-17.172 18.611,-29.995 36.577,-29.995 3.412,0 6.772,0.461 10.03,1.372 C 84.174,9.346 98.031,0.414 113.556,0 l 0.207,7.727 C 100.107,8.09 88.037,16.542 83.012,29.259 l -1.413,3.577 -3.584,-1.397 c -3.431,-1.337 -7.039,-2.015 -10.726,-2.015 -15.593,0 -28.555,12.182 -29.508,27.732 l -0.351,5.719 -5.171,-2.467 c -2.343,-1.117 -4.822,-1.685 -7.369,-1.685 -9.463,0 -17.161,7.698 -17.161,17.162 0,9.463 7.698,17.161 17.161,17.161 h 88.769 v 7.731 z" /><path
     d="m 170.11688,0.7153938 h 8.21356 V 43.516691 h -8.21356 V 26.254924 h -14.66801 v 17.261767 h -8.20929 V 0.7153938 h 8.20929 V 18.037084 h 14.66801 z m 21.45629,0 a 1.3910422,1.3910422 0 0 0 -0.96731,0.428018 l -2.65368,2.6536751 a 1.2027164,1.2027164 0 0 0 -0.42801,0.9630291 v 34.711853 a 1.2069966,1.2069966 0 0 0 0.42801,0.967314 l 2.65368,2.653675 a 1.2069966,1.2069966 0 0 0 0.96731,0.428018 h 22.94149 v -8.213578 h -18.77692 v -9.052474 h 16.30301 v -8.21784 H 195.73774 V 8.9246873 h 18.77692 V 0.7153938 Z M 226.8714,43.516691 h 19.08937 v -8.209293 h -14.9248 V 0.7153938 h -8.2093 V 39.471969 a 1.1813159,1.1813159 0 0 0 0.42802,0.967314 l 2.65368,2.653675 a 1.2069966,1.2069966 0 0 0 0.96731,0.428018 z M 307.31644,18.037084 V 0.7153938 h -8.20928 V 43.516691 h 8.20928 V 26.254924 h 14.66802 v 17.261767 h 8.21356 V 0.7153938 h -8.21356 V 18.037084 Z m 54.61875,13.268398 a 1.5451268,1.5451268 0 0 1 -0.42802,0.967314 l -2.59376,2.593751 a 1.4252833,1.4252833 0 0 1 -1.02723,0.428018 h -7.34042 a 1.2840389,1.2840389 0 0 1 -0.96731,-0.428018 l -2.59376,-2.593751 a 1.2840389,1.2840389 0 0 1 -0.42802,-0.967314 V 12.969408 a 1.2069966,1.2069966 0 0 1 0.42802,-0.967314 l 2.59376,-2.6536747 a 1.5451268,1.5451268 0 0 1 0.96731,-0.428018 h 7.3661 a 1.7120519,1.7120519 0 0 1 1.02724,0.428018 l 2.59375,2.6536747 a 1.4124429,1.4124429 0 0 1 0.42802,0.967314 z m 1.93033,-28.5570255 a 7.0194129,7.0194129 0 0 0 -4.82799,-2.0330627 h -9.59604 a 6.9038494,6.9038494 0 0 0 -4.88792,2.0501807 l -4.22877,4.228769 a 6.8482078,6.8482078 0 0 0 -1.99454,4.8493915 V 32.38836 a 6.8482078,6.8482078 0 0 0 1.99027,4.832263 l 4.22877,4.280123 a 6.7454846,6.7454846 0 0 0 4.89219,2.015945 h 9.59604 a 6.8482078,6.8482078 0 0 0 4.82799,-1.990256 l 4.28013,-4.280135 a 6.8482078,6.8482078 0 0 0 1.99882,-4.85794 V 11.843735 a 6.8482078,6.8482078 0 0 0 -1.99026,-4.8279883 l -4.28013,-4.2287691 z m 18.27616,40.7682345 h 19.43179 V 35.307398 H 386.30624 V 0.7153938 h -8.20929 V 39.471969 a 1.1898761,1.1898761 0 0 0 0.42802,0.967314 l 2.65796,2.653675 a 1.2069966,1.2069966 0 0 0 0.96731,0.428018 z M 410.81855,8.9246873 V 43.516691 h 8.20929 V 8.9246873 h 11.34662 V 0.7153938 H 399.47621 V 8.9246873 Z M 459.7704,1.1434118 a 1.4124429,1.4124429 0 0 0 -0.9716,-0.428018 H 434.83007 V 8.9246873 H 451.7965 L 434.05109,36.998055 v 2.473914 a 1.4252833,1.4252833 0 0 0 0.42801,0.967314 l 2.65796,2.653675 a 1.2069966,1.2069966 0 0 0 0.96731,0.428018 h 24.50802 V 35.307398 H 444.85414 L 462.83069,6.870221 V 4.7558422 A 1.4295633,1.4295633 0 0 0 462.40267,3.7928131 Z M 281.76835,0.7153938 270.34897,20.493879 258.9253,0.7153938 h -7.85404 V 43.516691 h 8.20929 V 17.044093 l 7.37466,12.776182 a 1.3696415,1.3696415 0 0 0 1.1856,0.684822 h 5.02059 a 1.3653614,1.3653614 0 0 0 1.1856,-0.684822 l 7.31046,-12.656345 v 26.352761 h 8.20928 V 0.7153938 Z"
     class="cls-1"
     id="Helmholtz"
     inkscape:connector-curvature="0"
     style="fill:#002864;fill-opacity:1;stroke-width:0.48625" /><path
     d="M 152.47975,57.512069 V 100.78225 H 147.24 V 57.512069 Z"
     style="font-size:59.4965px;line-height:1.25;font-family:Inter;-inkscape-font-specification:'Inter, Normal';letter-spacing:0px;word-spacing:0px;fill:#002864;stroke-width:1.68979"
     id="path38" /><path
     d="M 176.31213,100.78225 H 162.95922 V 57.512069 h 13.94449 q 6.29615,0 10.77529,2.598747 4.47914,2.577618 6.86661,7.415934 2.38746,4.817188 2.38746,11.535898 0,6.760965 -2.40859,11.641537 -2.4086,4.859444 -7.0145,7.479322 -4.60591,2.598743 -11.19785,2.598743 z m -8.11316,-4.648164 h 7.77511 q 5.36651,0 8.89489,-2.070546 3.52838,-2.070546 5.26088,-5.894717 1.7325,-3.824171 1.7325,-9.106175 0,-5.239749 -1.71137,-9.021664 -1.71137,-3.803043 -5.11298,-5.831333 -3.40161,-2.049418 -8.47234,-2.049418 h -8.36669 z"
     style="font-size:59.4965px;line-height:1.25;font-family:Inter;-inkscape-font-specification:'Inter, Normal';letter-spacing:0px;word-spacing:0px;fill:#002864;stroke-width:1.68979"
     id="path40" /><circle
     style="opacity:1;fill:#002864;fill-opacity:1;stroke:none;stroke-width:0.983295;stroke-miterlimit:2.1818;stroke-opacity:1"
     id="path850"
     cx="127.24"
     cy="48.73085"
     r="4.6789999" /><circle
     r="4.6789999"
     cy="75.364845"
     cx="67.405998"
     id="path850-9"
     style="opacity:1;fill:#002864;fill-opacity:1;stroke:none;stroke-width:0.983295;stroke-miterlimit:2.1818;stroke-opacity:1" /><circle
     style="opacity:1;fill:#002864;fill-opacity:1;stroke:none;stroke-width:0.983295;stroke-miterlimit:2.1818;stroke-opacity:1"
     id="path850-9-1"
     cx="58.693001"
     cy="30.11285"
     r="4.6789999" /></g></svg>
